<?xml version="1.0" encoding="UTF-8" standalone="no"?>
<svg
   version="1.0"
   width="578.000000pt"
   height="578.000000pt"
   viewBox="0 0 578.000000 578.000000"
   preserveAspectRatio="xMidYMid meet"
   id="svg184"
   sodipodi:docname="logo.svg"
   inkscape:version="1.1 (c68e22c387, 2021-05-23)"
   xmlns:inkscape="http://www.inkscape.org/namespaces/inkscape"
   xmlns:sodipodi="http://sodipodi.sourceforge.net/DTD/sodipodi-0.dtd"
   xmlns="http://www.w3.org/2000/svg"
   xmlns:svg="http://www.w3.org/2000/svg">
  <defs
     id="defs188" />
  <sodipodi:namedview
     id="namedview186"
     pagecolor="#505050"
     bordercolor="#eeeeee"
     borderopacity="1"
     inkscape:pageshadow="0"
     inkscape:pageopacity="0"
     inkscape:pagecheckerboard="0"
     inkscape:document-units="pt"
     showgrid="false"
     inkscape:zoom="1.0795848"
     inkscape:cx="384.40705"
     inkscape:cy="385.79647"
     inkscape:window-width="1920"
     inkscape:window-height="1017"
     inkscape:window-x="-8"
     inkscape:window-y="-8"
     inkscape:window-maximized="1"
     inkscape:current-layer="layer2" />
  <g
     inkscape:groupmode="layer"
     id="layer1"
     inkscape:label="Layer 1"
     style="display:inline">
    <ellipse
       style="fill:#ffde5a;fill-opacity:1;stroke-width:13.74;stroke-linejoin:round;stroke-dashoffset:2.2"
       id="path1028"
       cx="289.6947"
       cy="293.16827"
       rx="269.54807"
       ry="269.5481" />
  </g>
  <g
     inkscape:groupmode="layer"
     id="layer2"
     inkscape:label="Layer 2">
    <g
       transform="matrix(0.1,0,0,-0.1,-0.51200685,578.19693)"
       fill="#000000"
       stroke="none"
       id="g182">
      <path
         d="m 2673,5550 c -56,-5 -139,-16 -185,-25 -46,-10 -108,-21 -138,-25 -113,-17 -336,-79 -393,-111 -9,-5 -39,-16 -65,-25 -126,-42 -462,-220 -462,-245 0,-5 -7,-9 -15,-9 -27,0 -218,-145 -325,-247 -150,-142 -233,-230 -306,-323 -46,-58 -94,-119 -108,-135 -23,-29 -49,-73 -103,-175 -13,-24 -27,-46 -31,-50 -5,-3 -25,-38 -45,-79 -21,-41 -41,-79 -45,-85 -5,-6 -15,-27 -22,-46 -7,-19 -23,-57 -35,-85 -36,-78 -105,-294 -104,-324 0,-14 12,13 28,64 145,461 369,828 707,1156 420,408 932,656 1529,741 141,20 593,17 730,-5 167,-27 319,-63 450,-107 116,-39 155,-46 98,-17 -25,13 -182,63 -273,87 -47,13 -173,36 -295,56 -118,18 -446,26 -592,14 z"
         id="path2" />
      <path
         d="m 3871,5366 c 2,-2 54,-25 114,-51 C 4739,4991 5320,4304 5519,3500 5746,2585 5480,1615 4822,953 4398,527 3859,257 3265,173 3092,148 2688,149 2530,174 2162,232 1863,334 1574,500 851,915 376,1598 239,2420 c -52,315 -36,773 38,1043 19,68 12,86 -9,25 -20,-56 -43,-189 -64,-363 -22,-185 -15,-491 15,-685 23,-145 98,-443 112,-448 5,-2 9,-15 9,-29 0,-13 14,-59 31,-101 32,-78 154,-332 186,-387 39,-66 107,-171 127,-196 12,-14 30,-38 41,-54 121,-172 334,-386 555,-558 40,-32 170,-117 182,-119 7,-2 15,-5 18,-9 9,-10 101,-69 108,-69 10,-1 93,-43 122,-62 65,-44 453,-183 540,-194 14,-1 57,-12 97,-23 122,-34 383,-61 579,-60 150,1 405,30 526,59 46,12 129,31 184,45 56,13 122,33 147,44 25,12 51,21 57,21 17,0 230,91 243,104 7,7 33,20 59,29 67,26 368,213 368,229 0,5 7,8 15,8 8,0 15,4 15,10 0,5 13,16 29,24 16,9 44,30 63,48 19,18 63,58 97,88 35,30 84,77 109,104 26,27 63,65 82,85 19,20 53,58 75,85 22,27 45,54 50,60 16,17 146,211 187,279 53,87 168,320 168,340 0,8 4,18 10,22 5,3 14,20 19,38 5,18 21,64 36,102 37,97 60,177 79,265 55,267 69,394 69,635 0,249 -9,326 -69,613 -26,123 -89,318 -105,328 -5,3 -9,13 -9,23 0,31 -82,218 -148,336 -28,50 -47,83 -79,131 -19,28 -21,32 -88,130 -21,33 -65,92 -98,132 -32,39 -56,72 -54,72 7,0 -287,283 -336,323 -25,20 -50,37 -56,37 -6,0 -11,4 -11,9 0,11 -144,111 -159,111 -6,0 -14,8 -19,17 -10,17 -45,40 -152,96 -36,19 -83,44 -105,56 -22,11 -51,25 -65,31 -14,5 -32,14 -40,19 -43,26 -171,67 -149,47 z"
         id="path4" />
      <path
         d="m 2510,5230 c -64,-10 -163,-42 -308,-98 -110,-43 -132,-56 -132,-78 0,-22 70,-17 157,11 100,32 419,91 593,109 136,15 246,11 391,-14 30,-6 76,-10 102,-10 26,0 73,-9 104,-20 79,-27 122,-29 136,-8 21,31 -12,46 -173,79 -152,31 -161,31 -485,35 -181,1 -355,-1 -385,-6 z"
         id="path6" />
      <path
         d="m 3742,5054 c 2,-11 11,-20 22,-22 13,-3 17,1 14,14 -2,11 -11,20 -22,22 -13,3 -17,-1 -14,-14 z"
         id="path8" />
      <path
         d="m 1823,4974 c -60,-29 -117,-79 -108,-94 25,-40 229,59 212,103 -9,24 -43,21 -104,-9 z"
         id="path10" />
      <path
         d="m 3945,4980 c -8,-13 3,-30 20,-30 23,0 27,18 6,30 -13,7 -22,7 -26,0 z"
         id="path12" />
      <path
         d="m 4140,4872 c 0,-22 25,-46 106,-100 33,-22 83,-64 110,-92 50,-53 111,-89 152,-90 34,0 29,43 -8,72 -17,13 -65,51 -108,86 -68,57 -214,142 -242,142 -5,0 -10,-8 -10,-18 z"
         id="path14" />
      <path
         d="m 1552,4804 c -33,-19 -42,-31 -40,-47 5,-36 48,-34 86,4 59,58 27,87 -46,43 z"
         id="path16" />
      <path
         d="m 1434,4696 c -8,-22 3,-33 18,-18 9,9 9,15 0,24 -9,9 -13,7 -18,-6 z"
         id="path18" />
      <path
         d="m 1246,4549 c -43,-51 -30,-82 24,-54 43,22 54,85 15,85 -7,0 -25,-14 -39,-31 z"
         id="path20" />
      <path
         d="m 1795,4555 c -32,-31 -32,-75 -1,-112 l 24,-28 h 260 260 l 26,24 c 35,33 35,83 1,116 l -24,25 h -261 -261 z"
         id="path22" />
      <path
         d="m 4564,4545 c -11,-29 20,-80 95,-155 88,-88 136,-149 144,-182 4,-13 32,-66 63,-118 31,-52 74,-130 95,-175 21,-44 50,-100 64,-125 14,-25 25,-52 25,-60 0,-27 39,-80 59,-80 29,0 33,27 11,75 -11,24 -20,59 -20,79 0,24 -10,46 -35,76 -23,28 -35,52 -35,72 0,19 -27,79 -69,157 -63,114 -117,188 -196,267 -15,15 -41,49 -58,77 -18,29 -49,61 -76,78 -52,33 -59,35 -67,14 z"
         id="path24" />
      <path
         d="m 1114,4402 c -11,-7 -34,-45 -34,-56 0,-15 31,-4 44,16 25,36 19,60 -10,40 z"
         id="path26" />
      <path
         d="m 1847,4384 c -4,-4 -7,-43 -7,-86 v -78 h -214 -214 l -31,-26 -31,-26 v -922 c 0,-516 -4,-926 -9,-932 -5,-5 -14,-27 -21,-49 -6,-22 -23,-71 -37,-108 -22,-60 -27,-67 -47,-61 -70,20 -314,150 -445,236 l -34,22 7,-74 c 8,-91 36,-195 82,-304 19,-44 34,-82 34,-85 0,-8 -257,8 -307,20 -29,7 -56,10 -59,6 -11,-11 134,-193 213,-267 203,-190 483,-312 768,-336 63,-5 83,-3 92,7 6,8 37,62 69,122 31,59 63,107 70,107 6,0 76,-16 155,-34 648,-156 1396,-156 2035,0 78,19 148,34 155,34 8,0 43,-55 79,-121 l 65,-121 85,7 c 101,7 227,34 328,68 39,14 72,22 72,18 0,-13 -35,-58 -97,-123 -67,-71 -77,-100 -34,-106 26,-4 70,32 106,88 12,19 44,57 70,83 40,41 46,53 42,77 -6,27 -2,31 66,69 87,48 216,150 285,226 56,61 154,196 148,203 -3,2 -46,-3 -97,-12 -94,-16 -269,-22 -269,-9 0,4 16,44 35,89 19,45 44,115 54,155 25,97 37,209 23,209 -6,0 -14,-4 -17,-10 -16,-27 -327,-197 -428,-235 -59,-22 -56,-26 -99,110 -17,55 -35,104 -40,110 -4,5 -8,424 -8,930 v 922 l -21,19 c -20,18 -54,19 -1060,22 l -1038,2 -3,83 -3,82 -231,3 c -127,1 -233,-1 -237,-4 z m 1985,-384 h 106 l 84,-67 c 105,-84 173,-140 216,-178 33,-29 34,-32 29,-88 -3,-32 -11,-65 -19,-74 -10,-13 -14,-105 -18,-437 l -5,-421 -1274,-3 c -933,-1 -1277,1 -1287,9 -11,9 -14,88 -14,418 0,343 -2,410 -15,427 -9,12 -14,43 -15,85 v 66 l 141,129 141,129 221,5 c 122,3 533,4 912,3 380,-1 738,-3 797,-3 z M 1582,2275 c 266,-100 563,-174 853,-212 200,-26 729,-26 930,0 322,42 583,110 951,248 50,19 66,21 85,12 22,-10 19,-14 -61,-50 -47,-22 -113,-50 -148,-63 -34,-12 -61,-24 -59,-27 5,-4 119,32 220,71 81,31 87,32 87,6 0,-21 -20,-31 -200,-106 -58,-24 -96,-44 -85,-44 16,1 214,72 286,104 28,12 31,-30 3,-49 -32,-21 -186,-88 -252,-110 -29,-9 -51,-19 -49,-21 7,-7 159,43 248,82 83,35 99,36 99,5 0,-18 -77,-59 -212,-112 -29,-11 -55,-23 -58,-26 -11,-12 60,10 169,54 90,36 115,42 122,31 15,-23 10,-36 -18,-46 -16,-6 -66,-26 -111,-46 -46,-19 -106,-42 -134,-52 -27,-9 -48,-18 -46,-20 5,-4 162,45 252,80 81,31 96,32 96,7 0,-18 -20,-28 -245,-121 -95,-39 9,-11 132,36 126,48 143,51 143,30 0,-9 -55,-38 -142,-75 -79,-33 -137,-60 -130,-61 14,0 225,76 263,96 23,11 29,11 39,-1 14,-17 -24,-38 -195,-106 -66,-27 -115,-48 -108,-49 15,0 194,61 256,89 65,28 77,27 77,-8 0,-37 -6,-42 -129,-91 -958,-381 -2081,-406 -3041,-66 -234,82 -293,109 -310,139 -27,48 -2,52 95,12 99,-40 216,-77 222,-71 2,2 -13,10 -34,16 -82,27 -255,105 -260,117 -10,27 8,26 84,-5 105,-41 204,-74 209,-69 3,2 -32,18 -77,36 -130,51 -189,82 -189,98 0,20 18,15 150,-35 122,-47 199,-66 94,-24 -189,77 -237,107 -204,127 6,4 47,-8 93,-26 85,-33 229,-80 234,-76 1,1 -66,30 -150,63 -147,59 -168,73 -148,102 7,11 22,8 77,-16 103,-44 194,-75 200,-69 3,3 -19,14 -48,25 -120,45 -208,93 -208,112 0,31 15,31 82,0 79,-35 248,-94 254,-87 3,2 -30,17 -73,32 -82,29 -228,99 -237,113 -2,4 -1,14 4,22 7,11 25,7 102,-23 97,-38 216,-77 233,-76 6,0 -26,14 -70,30 -43,17 -116,47 -162,69 -65,30 -83,43 -83,59 0,12 2,21 4,21 3,0 58,-20 123,-44 65,-24 134,-47 153,-50 23,-4 13,3 -30,19 -115,45 -230,97 -230,105 0,10 19,18 45,19 12,1 86,-24 167,-54 z m -685,-42 c 103,-59 314,-163 332,-163 17,0 12,-21 -19,-75 -16,-27 -36,-65 -45,-82 -10,-18 -21,-33 -26,-33 -14,0 -10,-84 6,-130 8,-23 13,-46 10,-50 -3,-5 1,-12 8,-17 20,-12 60,-83 47,-83 -6,0 -27,7 -47,15 -63,27 -45,10 25,-23 63,-29 141,-92 113,-92 -7,0 -46,13 -88,30 -41,16 -78,30 -81,30 -17,0 61,-39 138,-69 83,-33 201,-102 183,-108 -5,-2 -61,14 -124,36 -155,54 -158,55 -127,37 15,-9 82,-37 150,-62 135,-50 148,-57 97,-48 -322,54 -513,145 -717,338 -78,74 -168,183 -159,193 3,2 37,0 76,-6 85,-13 258,-14 265,-2 3,5 -8,40 -25,78 -61,134 -119,343 -95,343 3,0 49,-26 103,-57 z m 4107,15 c -12,-77 -55,-211 -94,-295 -37,-80 -37,-81 -16,-87 35,-10 189,-7 250,5 95,17 96,13 27,-73 -182,-226 -466,-395 -739,-438 -37,-6 -78,-13 -92,-16 -38,-8 -12,11 35,26 67,21 247,92 243,96 -2,1 -62,-17 -132,-42 -71,-24 -134,-43 -139,-41 -11,3 109,87 125,87 16,0 199,82 195,87 -3,2 -43,-12 -91,-31 -47,-19 -86,-31 -86,-27 0,18 70,72 123,95 65,29 77,42 17,19 -22,-9 -43,-14 -46,-10 -7,7 46,87 58,87 5,0 6,5 3,11 -4,6 1,31 10,56 22,56 16,96 -23,154 -73,109 -92,159 -60,159 18,0 251,116 338,168 47,29 88,52 93,52 4,0 4,-19 1,-42 z M 1200,1730 c 0,-5 -4,-10 -10,-10 -5,0 -10,5 -10,10 0,6 5,10 10,10 6,0 10,-4 10,-10 z m 3420,5 c 0,-23 -48,-79 -172,-201 -146,-144 -211,-194 -223,-173 -7,10 341,361 369,373 16,7 26,7 26,1 z m -3360,-28 c 0,-8 -9,-22 -21,-33 -17,-16 -22,-16 -29,-4 -11,18 -13,34 -3,43 12,12 53,7 53,-6 z m 3113,-160 c -140,-139 -159,-154 -171,-139 -11,14 3,32 113,142 90,90 138,131 168,142 23,8 43,14 45,13 2,-1 -68,-73 -155,-158 z m -3058,147 c 14,-6 10,-13 -21,-45 -43,-44 -49,-46 -58,-22 -4,10 3,26 21,45 29,30 32,31 58,22 z m 59,-23 c 16,-6 12,-14 -34,-61 -52,-53 -53,-54 -63,-32 -9,20 -5,28 28,62 22,22 42,40 45,39 3,0 13,-4 24,-8 z m 70,-29 c 3,-5 -21,-35 -54,-67 -51,-51 -61,-57 -75,-45 -14,12 -10,19 37,67 49,49 80,64 92,45 z m 2846,-97 c -58,-58 -106,-105 -107,-105 -1,0 -7,9 -13,19 -9,17 0,30 61,91 67,67 114,99 149,100 8,0 -32,-47 -90,-105 z m -2784,74 c 4,-6 -23,-39 -62,-75 -61,-57 -70,-63 -83,-49 -14,13 -9,22 44,75 57,58 86,72 101,49 z m 59,-15 c 13,-5 1,-23 -61,-85 -67,-67 -79,-76 -95,-66 -17,11 -12,18 53,84 76,77 76,77 103,67 z m 2655,-41 c -60,-63 -63,-65 -78,-46 -21,29 49,86 113,92 5,1 -11,-20 -35,-46 z m -2585,17 c 8,-12 -17,-40 -103,-116 -53,-47 -65,-54 -78,-43 -13,11 -5,23 63,91 73,74 104,91 118,68 z m 2895,7 c 0,-1 -24,-25 -52,-52 l -53,-50 50,53 c 46,48 55,57 55,49 z m -2850,-22 c 0,-33 -129,-185 -157,-185 -34,0 -18,29 58,106 76,76 99,95 99,79 z m 2460,1 c 0,-3 -4,-8 -10,-11 -5,-3 -10,-1 -10,4 0,6 5,11 10,11 6,0 10,-2 10,-4 z M 1583,1379 c -14,-21 -23,-27 -28,-19 -4,6 3,22 16,36 30,32 36,23 12,-17 z"
         id="path28" />
      <path
         d="m 1820,3850 -105,-99 102,-1 h 102 l 73,88 c 103,121 102,112 11,112 l -78,-1 z"
         id="path30" />
      <path
         d="m 2080,3861 c -41,-50 -76,-95 -78,-100 -2,-7 32,-11 100,-11 h 103 l 53,94 c 28,52 52,97 52,100 0,3 -35,6 -78,6 h -78 z"
         id="path32" />
      <path
         d="m 2326,3856 c -31,-52 -56,-97 -56,-100 0,-3 49,-6 109,-6 h 109 l 31,96 c 17,52 31,97 31,100 0,2 -38,4 -84,4 h -85 z"
         id="path34" />
      <path
         d="m 2607,3943 c -7,-12 -57,-173 -57,-184 0,-5 47,-9 109,-9 h 108 l 7,61 c 3,34 6,79 6,100 v 39 h -84 c -47,0 -87,-3 -89,-7 z"
         id="path36" />
      <path
         d="m 2836,3935 c -3,-9 -6,-55 -6,-101 v -84 h 110 c 82,0 110,3 110,13 -1,6 -9,50 -18,97 l -18,85 -86,3 c -71,2 -87,0 -92,-13 z"
         id="path38" />
      <path
         d="m 3076,3913 c 3,-21 12,-65 18,-98 l 12,-60 112,-3 112,-3 -19,43 c -10,24 -30,69 -44,101 l -26,57 h -86 -86 z"
         id="path40" />
      <path
         d="m 3300,3946 c 0,-2 20,-47 45,-100 l 44,-96 h 107 c 88,0 105,2 101,14 -3,8 -34,53 -68,100 l -63,86 h -83 c -46,0 -83,-2 -83,-4 z"
         id="path42" />
      <path
         d="m 3540,3944 c 0,-3 30,-48 68,-100 l 67,-94 h 103 104 l -94,100 -93,99 -77,1 c -43,0 -78,-3 -78,-6 z"
         id="path44" />
      <path
         d="m 3865,3850 100,-100 h 92 c 51,0 93,3 93,8 -1,4 -54,49 -118,99 l -117,93 h -75 -75 z"
         id="path46" />
      <path
         d="m 1670,3660 c 0,-76 87,-128 163,-97 42,18 64,49 69,97 l 3,35 -117,3 -118,3 z"
         id="path48" />
      <path
         d="m 1960,3659 c 0,-78 90,-129 164,-94 47,23 66,50 66,97 v 38 h -115 -115 z"
         id="path50" />
      <path
         d="m 2250,3657 c 0,-32 6,-49 23,-65 55,-51 123,-52 175,-1 25,25 32,40 32,70 v 39 h -115 -115 z"
         id="path52" />
      <path
         d="m 2537,3694 c -15,-16 -6,-64 18,-93 30,-35 83,-55 124,-46 15,3 42,21 60,39 26,27 32,40 29,67 l -3,34 -111,3 c -60,1 -113,-1 -117,-4 z"
         id="path54" />
      <path
         d="m 2827,3693 c -19,-18 -5,-67 26,-98 57,-57 110,-58 172,-4 29,26 35,38 35,70 v 39 h -113 c -63,0 -117,-3 -120,-7 z"
         id="path56" />
      <path
         d="m 3117,3694 c -19,-19 -6,-67 26,-99 59,-59 116,-58 174,0 28,28 34,41 31,67 l -3,33 -111,3 c -60,1 -113,-1 -117,-4 z"
         id="path58" />
      <path
         d="m 3400,3662 c 0,-31 7,-46 31,-70 18,-17 45,-34 60,-37 68,-15 153,48 147,109 l -3,31 -117,3 -118,3 z"
         id="path60" />
      <path
         d="m 3690,3661 c 0,-73 84,-128 155,-101 53,20 75,49 75,97 v 43 h -115 -115 z"
         id="path62" />
      <path
         d="m 3980,3659 c 0,-78 90,-129 164,-94 47,23 66,50 66,97 v 38 h -115 -115 z"
         id="path64" />
      <path
         d="m 1887,3537 c -34,-28 -46,-32 -95,-32 -32,0 -63,2 -70,5 -11,4 -13,-65 -14,-360 v -365 l 1218,-1 c 671,-1 1227,0 1237,3 16,4 17,30 17,370 0,344 -1,365 -17,358 -65,-26 -135,-12 -190,37 l -22,20 -39,-32 c -67,-53 -154,-51 -222,7 l -30,25 -35,-31 c -61,-53 -141,-54 -214,0 l -42,30 -34,-30 c -60,-52 -141,-53 -211,-3 l -39,28 -41,-29 c -71,-50 -157,-47 -216,8 l -28,25 -41,-30 c -73,-53 -153,-52 -215,2 l -35,31 -22,-21 c -70,-66 -173,-68 -239,-5 l -28,27 -22,-21 c -70,-64 -159,-69 -228,-14 -21,17 -40,31 -42,30 -2,0 -20,-14 -41,-32 z m 1029,-376 c 6,-30 44,-47 62,-29 18,18 57,5 60,-19 2,-15 10,-23 23,-23 47,0 102,-46 130,-109 24,-55 24,-59 -4,-112 l -24,-44 -191,-3 -191,-2 -16,77 c -9,43 -19,84 -21,92 -3,8 1,18 7,22 10,6 9,17 -4,49 -16,41 -16,41 9,52 17,8 24,18 22,32 -2,17 2,21 27,21 23,0 31,-5 33,-22 2,-13 8,-23 13,-23 6,0 8,12 4,29 -5,23 -2,30 12,34 37,10 44,6 49,-22 z m 985,-16 c 3,-22 11,-53 18,-68 6,-16 11,-82 11,-153 v -124 h -60 -60 v 125 c 0,89 4,136 15,162 8,19 15,48 15,63 0,33 8,42 35,38 15,-2 21,-13 26,-43 z m -1955,-10 c 4,-8 1,-22 -6,-30 -16,-19 -5,-80 21,-116 25,-35 27,-149 3,-173 -18,-18 -104,-22 -135,-6 -29,16 -27,135 2,185 18,29 21,46 16,90 -3,29 -3,56 0,59 4,3 26,6 50,6 30,0 45,-5 49,-15 z m 2158,-52 c -4,-10 -11,-54 -15,-98 -5,-44 -11,-104 -15,-132 l -7,-53 h -47 -48 l -6,58 c -4,31 -9,83 -12,115 l -6,57 h 61 c 60,0 61,0 75,35 8,19 18,35 22,35 3,0 3,-8 -2,-17 z"
         id="path66" />
      <path
         d="m 2883,3125 c 4,-26 7,-66 8,-89 1,-40 1,-40 11,-13 12,33 2,133 -14,143 -8,5 -9,-7 -5,-41 z"
         id="path68" />
      <path
         d="m 2800,3118 c 0,-18 5,-40 10,-48 7,-11 10,-2 10,33 0,26 -4,47 -10,47 -5,0 -10,-15 -10,-32 z"
         id="path70" />
      <path
         d="m 2987,3091 c -3,-16 -9,-40 -13,-55 -3,-15 -2,-26 4,-26 9,0 32,72 32,99 0,23 -18,9 -23,-18 z"
         id="path72" />
      <path
         d="m 2930,3053 c 0,-41 3,-54 10,-43 13,20 13,100 0,100 -6,0 -10,-26 -10,-57 z"
         id="path74" />
      <path
         d="m 2760,3090 c 0,-17 34,-80 43,-80 5,0 6,8 2,18 -4,9 -12,29 -17,45 -10,26 -28,38 -28,17 z"
         id="path76" />
      <path
         d="m 2850,3050 c 0,-27 5,-50 10,-50 6,0 10,23 10,50 0,28 -4,50 -10,50 -5,0 -10,-22 -10,-50 z"
         id="path78" />
      <path
         d="m 3019,3052 c -6,-16 -6,-29 0,-35 5,-5 7,-16 4,-23 -3,-9 2,-14 13,-15 72,-4 120,-5 127,-2 10,6 -12,44 -37,64 -12,10 -38,22 -59,27 -36,10 -39,9 -48,-16 z"
         id="path80" />
      <path
         d="m 2780,2920 c 8,-36 19,-71 23,-77 9,-14 134,-18 154,-5 9,6 42,114 43,142 0,3 -53,5 -118,5 h -118 z"
         id="path82" />
      <path
         d="m 3015,2948 c -17,-50 -13,-53 60,-55 96,-4 115,2 115,32 0,31 -29,34 -55,5 -18,-20 -45,-27 -45,-12 0,8 -52,42 -64,42 -4,0 -9,-6 -11,-12 z"
         id="path84" />
      <path
         d="m 3090,2952 c 0,-14 11,-21 26,-15 8,3 11,9 8,14 -7,11 -34,12 -34,1 z"
         id="path86" />
      <path
         d="m 2998,2869 c -6,-4 -8,-14 -5,-23 5,-12 21,-16 67,-16 64,0 100,12 100,33 0,13 -142,18 -162,6 z"
         id="path88" />
      <path
         d="m 3858,3173 c 7,-3 16,-2 19,1 4,3 -2,6 -13,5 -11,0 -14,-3 -6,-6 z"
         id="path90" />
      <path
         d="m 3857,3143 c -12,-11 -8,-23 8,-23 8,0 15,7 15,15 0,16 -12,20 -23,8 z"
         id="path92" />
      <path
         d="m 3834,3075 c -7,-19 -14,-37 -14,-40 0,-3 23,-5 50,-5 54,0 58,5 35,50 -22,42 -52,40 -71,-5 z"
         id="path94" />
      <path
         d="m 3820,2980 v -40 h 50 50 v 40 40 h -50 -50 z m 78,3 c -4,-20 -35,-30 -50,-15 -15,15 0,32 28,32 19,0 25,-5 22,-17 z"
         id="path96" />
      <path
         d="m 3850,2980 c 0,-5 9,-10 20,-10 11,0 20,5 20,10 0,6 -9,10 -20,10 -11,0 -20,-4 -20,-10 z"
         id="path98" />
      <path
         d="m 3820,2916 c 0,-7 3,-34 6,-60 7,-46 7,-46 46,-46 32,0 39,3 34,15 -3,8 -1,15 4,15 6,0 10,20 10,45 v 45 h -50 c -35,0 -50,-4 -50,-14 z"
         id="path100" />
      <path
         d="m 1868,3123 c 12,-2 32,-2 45,0 12,2 2,4 -23,4 -25,0 -35,-2 -22,-4 z"
         id="path102" />
      <path
         d="m 1883,3093 c 9,-2 23,-2 30,0 6,3 -1,5 -18,5 -16,0 -22,-2 -12,-5 z"
         id="path104" />
      <path
         d="m 1870,3066 c 0,-10 28,-13 41,-5 10,6 7,9 -13,9 -16,0 -28,-2 -28,-4 z"
         id="path106" />
      <path
         d="m 1845,2990 c -16,-31 -25,-66 -25,-94 0,-72 4,-76 75,-76 55,0 65,3 70,20 21,66 -27,200 -71,200 -18,0 -29,-11 -49,-50 z m 81,-55 c 9,-9 14,-28 12,-47 -3,-31 -5,-33 -43,-33 -38,0 -40,2 -43,32 -5,54 40,83 74,48 z"
         id="path108" />
      <path
         d="m 1872,2925 c -19,-23 -5,-65 23,-65 30,0 40,43 15,65 -20,18 -22,18 -38,0 z"
         id="path110" />
      <path
         d="m 3965,3010 c -4,-6 13,-10 44,-10 28,0 51,5 51,10 0,6 -20,10 -44,10 -25,0 -48,-4 -51,-10 z"
         id="path112" />
      <path
         d="m 3965,2943 c 4,-21 10,-55 13,-77 l 7,-39 31,77 32,76 h -45 -46 z"
         id="path114" />
      <path
         d="m 4031,2905 c -36,-86 -37,-95 -13,-95 29,0 39,13 45,60 4,25 10,60 13,78 11,57 -12,35 -45,-43 z"
         id="path116" />
      <path
         d="m 3940,2135 c -38,-9 -49,-18 -69,-54 -13,-23 -21,-44 -19,-47 3,-2 22,1 43,8 37,13 101,77 94,95 -2,5 -23,5 -49,-2 z"
         id="path118" />
      <path
         d="m 1720,2042 c 0,-11 9,-45 20,-77 11,-32 20,-65 19,-74 0,-9 -29,-41 -64,-71 -35,-30 -62,-59 -61,-65 1,-5 26,-15 55,-23 50,-12 55,-12 75,7 33,31 47,29 60,-9 11,-31 18,-37 69,-49 31,-8 59,-13 62,-10 3,3 -6,39 -20,79 -14,40 -25,81 -25,91 0,9 25,40 55,67 30,28 55,55 55,61 0,11 -62,31 -96,31 -11,0 -29,-9 -39,-20 -24,-27 -29,-25 -40,13 -8,27 -18,35 -60,49 -65,21 -65,21 -65,0 z"
         id="path120" />
      <path
         d="m 3905,2020 c -69,-18 -101,-31 -103,-43 -4,-22 69,-297 80,-297 17,0 233,62 241,69 5,5 -7,63 -17,78 -1,1 -34,-6 -74,-16 -47,-13 -74,-15 -78,-9 -9,14 12,26 74,39 55,13 61,23 43,72 l -10,25 -65,-18 c -53,-15 -65,-16 -70,-5 -3,10 12,19 52,30 31,9 63,18 70,20 13,5 15,27 6,63 -8,28 -21,27 -149,-8 z"
         id="path122" />
      <path
         d="m 3645,1960 c -49,-9 -107,-20 -127,-24 -35,-6 -38,-10 -38,-39 0,-54 9,-60 75,-48 32,6 59,10 61,8 1,-1 -22,-38 -51,-82 -50,-75 -53,-83 -45,-119 4,-20 10,-39 12,-41 4,-4 269,43 275,49 2,2 1,22 -3,45 -7,45 -15,48 -89,31 -22,-5 -41,-7 -43,-5 -2,2 17,38 43,80 41,65 47,81 42,112 -4,20 -10,39 -14,43 -4,4 -48,0 -98,-10 z"
         id="path124" />
      <path
         d="m 2037,1827 c -15,-78 -27,-149 -27,-158 0,-12 14,-18 51,-23 28,-4 54,-5 56,-2 8,8 64,298 59,303 -6,6 -76,22 -97,23 -12,0 -21,-32 -42,-143 z"
         id="path126" />
      <path
         d="m 4158,1963 c 7,-3 16,-2 19,1 4,3 -2,6 -13,5 -11,0 -14,-3 -6,-6 z"
         id="path128" />
      <path
         d="m 2259,1907 c -87,-58 -50,-154 73,-187 21,-6 38,-15 38,-20 0,-13 -53,-13 -66,0 -6,6 -34,13 -62,17 -50,6 -52,5 -52,-18 0,-59 64,-99 160,-99 70,0 111,17 128,55 30,64 6,104 -83,140 -33,13 -61,29 -63,34 -5,16 21,13 54,-4 16,-8 48,-15 72,-15 40,0 43,2 37,23 -4,12 -22,36 -41,53 -55,50 -139,59 -195,21 z"
         id="path130" />
      <path
         d="m 3095,1886 c -16,-7 -41,-26 -55,-40 -22,-25 -25,-35 -23,-98 1,-39 7,-85 13,-103 22,-65 130,-95 219,-59 59,23 76,55 74,136 -3,130 -35,170 -138,175 -36,2 -72,-2 -90,-11 z m 109,-138 c 10,-64 -2,-91 -38,-86 -17,2 -22,13 -28,58 -9,74 -3,92 30,88 24,-3 28,-8 36,-60 z"
         id="path132" />
      <path
         d="m 2677,1783 c -4,-58 -7,-130 -7,-160 v -53 h 108 c 88,0 113,3 139,20 44,26 52,47 55,134 1,63 -2,81 -18,104 -35,47 -79,62 -180,62 h -91 z m 173,-3 c 17,-31 2,-118 -21,-125 -32,-10 -39,4 -39,76 0,67 1,69 25,69 14,0 29,-8 35,-20 z"
         id="path134" />
      <path
         d="m 1140,1480 c 8,-5 20,-10 25,-10 6,0 3,5 -5,10 -8,5 -19,10 -25,10 -5,0 -3,-5 5,-10 z"
         id="path136" />
      <path
         d="m 4660,1490 c -8,-5 -10,-10 -5,-10 6,0 17,5 25,10 8,5 11,10 5,10 -5,0 -17,-5 -25,-10 z"
         id="path138" />
      <path
         d="m 1002,4293 c -19,-8 -140,-185 -187,-276 -23,-45 -59,-112 -79,-150 -51,-92 -90,-203 -138,-387 -50,-194 -76,-330 -78,-401 -7,-376 -3,-486 19,-594 12,-60 29,-144 37,-185 30,-157 95,-325 124,-325 29,0 23,82 -14,213 -77,265 -85,320 -92,612 -4,168 -2,234 15,365 22,176 70,360 125,485 19,41 46,107 61,145 15,39 31,75 35,80 5,6 34,57 65,115 31,58 79,134 105,170 26,36 50,74 54,86 13,42 -11,64 -52,47 z"
         id="path140" />
      <path
         d="m 5140,3526 c 0,-9 7,-16 16,-16 9,0 14,5 12,12 -6,18 -28,21 -28,4 z"
         id="path142" />
      <path
         d="m 5175,3381 c -8,-15 3,-31 21,-31 9,0 14,7 12,17 -4,20 -24,28 -33,14 z"
         id="path144" />
      <path
         d="m 5227,3073 c -4,-3 -7,-17 -7,-30 0,-16 6,-23 19,-23 23,0 32,19 19,43 -9,18 -20,22 -31,10 z"
         id="path146" />
      <path
         d="m 5221,2899 c -6,-18 -11,-69 -11,-114 0,-66 4,-88 18,-106 35,-42 48,-20 55,88 8,114 0,157 -30,161 -16,2 -23,-5 -32,-29 z"
         id="path148" />
      <path
         d="m 5212,2608 c -7,-7 -12,-22 -12,-33 0,-12 -7,-44 -15,-71 -9,-27 -20,-83 -25,-124 -11,-90 -68,-299 -98,-357 -28,-54 -29,-103 -4,-103 28,0 50,30 68,91 9,30 25,70 35,90 40,79 121,464 105,504 -7,18 -37,20 -54,3 z"
         id="path150" />
      <path
         d="m 1674,1235 c -40,-43 -51,-77 -35,-111 17,-38 41,-31 41,14 0,43 38,92 71,92 32,0 19,34 -14,38 -22,3 -36,-5 -63,-33 z"
         id="path152" />
      <path
         d="m 4017,1245 -37,-26 21,-40 c 18,-36 22,-39 37,-27 9,7 20,17 23,22 4,5 12,5 19,1 9,-6 3,-13 -21,-24 -43,-20 -43,-35 -2,-39 24,-2 39,3 58,22 32,32 32,61 0,82 -23,15 -27,15 -52,0 l -28,-17 29,24 c 27,24 29,47 3,47 -7,0 -29,-11 -50,-25 z"
         id="path154" />
      <path
         d="m 1164,1236 c -13,-33 235,-297 372,-398 78,-57 154,-97 369,-193 204,-92 450,-155 601,-155 74,0 120,-6 168,-20 60,-19 84,-20 303,-16 348,7 385,13 558,86 49,21 140,53 200,70 115,34 145,51 145,82 0,15 8,18 42,18 52,0 221,82 293,141 26,21 51,39 56,39 17,0 79,63 79,80 0,24 -30,33 -64,20 -14,-5 -84,-47 -154,-93 -70,-46 -144,-92 -166,-102 -21,-11 -47,-32 -58,-46 -15,-20 -29,-27 -58,-27 -21,0 -99,-23 -173,-51 -150,-57 -198,-68 -438,-105 -179,-28 -434,-35 -567,-17 -37,6 -105,15 -151,21 -180,24 -549,150 -691,236 -47,28 -128,75 -180,104 -52,29 -120,76 -150,104 -30,29 -75,65 -100,81 -25,15 -75,56 -112,91 -67,65 -112,82 -124,50 z"
         id="path156" />
      <path
         d="m 1826,1157 c -14,-19 -26,-36 -26,-39 0,-3 14,-11 31,-18 19,-8 27,-16 21,-22 -7,-7 -18,-2 -31,11 -28,28 -41,27 -41,-4 0,-18 10,-31 33,-45 40,-25 59,-25 80,-2 24,26 21,47 -9,71 -15,12 -22,21 -16,21 6,0 14,-4 17,-10 3,-5 15,-10 26,-10 17,0 21,6 18,28 -1,4 -19,17 -40,30 l -38,22 z"
         id="path158" />
      <path
         d="m 3841,1141 c -19,-12 -27,-106 -11,-126 19,-23 68,-18 95,10 41,40 30,79 -25,87 -17,2 -24,8 -22,21 3,18 -14,22 -37,8 z m 49,-87 c 0,-8 -5,-12 -10,-9 -6,4 -8,11 -5,16 9,14 15,11 15,-7 z"
         id="path160" />
      <path
         d="m 4426,1109 c -31,-37 -33,-55 -5,-69 24,-13 59,5 85,45 38,58 -34,79 -80,24 z"
         id="path162" />
      <path
         d="m 2018,1063 c -26,-6 -23,-43 2,-43 20,0 20,-1 5,-31 -19,-36 -14,-59 13,-59 26,0 80,119 60,131 -14,9 -51,10 -80,2 z"
         id="path164" />
      <path
         d="m 3626,1039 c -32,-25 -35,-59 -6,-59 11,0 23,7 26,15 4,8 10,15 15,15 15,0 10,-24 -11,-50 -20,-25 -27,-70 -11,-70 7,0 109,39 119,45 9,6 -13,35 -27,35 -14,0 -17,7 -13,30 8,58 -41,79 -92,39 z"
         id="path166" />
      <path
         d="m 2196,1033 c -3,-3 -3,-25 1,-49 6,-47 -15,-94 -42,-94 -8,0 -15,-9 -15,-20 0,-28 43,-27 70,2 26,28 44,89 37,120 -6,23 -40,51 -51,41 z"
         id="path168" />
      <path
         d="m 3411,961 c -12,-12 -21,-25 -21,-30 0,-23 15,-43 37,-52 19,-7 24,-15 20,-29 -5,-21 16,-27 39,-12 16,10 37,82 32,112 -3,21 -9,25 -45,28 -32,2 -47,-2 -62,-17 z m 59,-31 c 0,-5 -4,-10 -10,-10 -5,0 -10,5 -10,10 0,6 5,10 10,10 6,0 10,-4 10,-10 z"
         id="path170" />
      <path
         d="m 2358,956 c -29,-15 -35,-52 -12,-78 18,-19 18,-20 1,-29 -22,-13 -13,-29 16,-29 32,0 97,56 97,84 0,43 -59,73 -102,52 z m 47,-46 c 3,-5 -1,-10 -9,-10 -9,0 -16,5 -16,10 0,6 4,10 9,10 6,0 13,-4 16,-10 z"
         id="path172" />
      <path
         d="m 3220,929 c -31,-13 -40,-26 -40,-67 0,-38 37,-82 70,-82 12,0 32,11 46,25 21,21 24,31 18,62 -10,58 -45,81 -94,62 z m 38,-72 c 5,-37 -15,-34 -20,3 -3,19 -1,29 6,27 6,-2 12,-16 14,-30 z"
         id="path174" />
      <path
         d="m 2550,901 c -15,-29 -12,-46 10,-66 18,-17 19,-20 5,-35 -15,-16 -14,-18 9,-22 19,-4 33,4 60,31 58,59 41,111 -34,111 -29,0 -42,-5 -50,-19 z m 70,-31 c 0,-5 -7,-10 -16,-10 -8,0 -12,5 -9,10 3,6 10,10 16,10 5,0 9,-4 9,-10 z"
         id="path176" />
      <path
         d="m 2988,903 c -10,-2 -18,-13 -18,-24 0,-14 7,-19 30,-19 35,0 34,4 15,-50 -19,-53 -19,-50 10,-50 19,0 28,9 41,38 9,20 18,54 21,75 l 6,37 -44,-1 c -24,-1 -52,-3 -61,-6 z"
         id="path178" />
      <path
         d="m 2793,878 c -52,-58 -52,-102 0,-116 46,-12 80,0 92,32 8,24 6,31 -18,51 -15,13 -22,27 -17,30 18,11 10,25 -13,25 -13,0 -33,-10 -44,-22 z m 37,-68 c 0,-5 -4,-10 -10,-10 -5,0 -10,5 -10,10 0,6 5,10 10,10 6,0 10,-4 10,-10 z"
         id="path180" />
    </g>
  </g>
</svg>
