<svg width="53" height="60" viewBox="0 0 53 60" fill="none" xmlns="http://www.w3.org/2000/svg">
<g clip-path="url(#clip0_4_29)" filter="url(#filter0_i_4_29)">
<path d="M26.2617 16.5234C18.8086 16.5234 12.7969 22.5352 12.7969 29.9883C12.7969 37.4414 18.8086 43.4531 26.2617 43.4531C33.7148 43.4531 39.7266 37.4414 39.7266 29.9883C39.7266 22.5352 33.7148 16.5234 26.2617 16.5234ZM26.2617 38.7422C21.4453 38.7422 17.5078 34.8164 17.5078 29.9883C17.5078 25.1602 21.4336 21.2344 26.2617 21.2344C31.0898 21.2344 35.0156 25.1602 35.0156 29.9883C35.0156 34.8164 31.0781 38.7422 26.2617 38.7422ZM43.418 15.9727C43.418 17.7188 42.0117 19.1133 40.2773 19.1133C38.5313 19.1133 37.1367 17.707 37.1367 15.9727C37.1367 14.2383 38.543 12.832 40.2773 12.832C42.0117 12.832 43.418 14.2383 43.418 15.9727ZM52.3359 19.1602C52.1367 14.9531 51.1758 11.2266 48.0938 8.15625C45.0234 5.08594 41.2969 4.125 37.0898 3.91406C32.7539 3.66797 19.7578 3.66797 15.4219 3.91406C11.2266 4.11328 7.5 5.07422 4.41797 8.14453C1.33594 11.2148 0.386719 14.9414 0.175781 19.1484C-0.0703125 23.4844 -0.0703125 36.4805 0.175781 40.8164C0.375 45.0234 1.33594 48.75 4.41797 51.8203C7.5 54.8906 11.2148 55.8516 15.4219 56.0625C19.7578 56.3086 32.7539 56.3086 37.0898 56.0625C41.2969 55.8633 45.0234 54.9023 48.0938 51.8203C51.1641 48.75 52.125 45.0234 52.3359 40.8164C52.582 36.4805 52.582 23.4961 52.3359 19.1602ZM46.7344 45.4688C45.8203 47.7656 44.0508 49.5352 41.7422 50.4609C38.2852 51.832 30.082 51.5156 26.2617 51.5156C22.4414 51.5156 14.2266 51.8203 10.7812 50.4609C8.48438 49.5469 6.71484 47.7773 5.78906 45.4688C4.41797 42.0117 4.73438 33.8086 4.73438 29.9883C4.73438 26.168 4.42969 17.9531 5.78906 14.5078C6.70313 12.2109 8.47266 10.4414 10.7812 9.51562C14.2383 8.14453 22.4414 8.46094 26.2617 8.46094C30.082 8.46094 38.2969 8.15625 41.7422 9.51562C44.0391 10.4297 45.8086 12.1992 46.7344 14.5078C48.1055 17.9648 47.7891 26.168 47.7891 29.9883C47.7891 33.8086 48.1055 42.0234 46.7344 45.4688Z" fill="#FFDE5A"/>
</g>
<defs>
<filter id="filter0_i_4_29" x="0" y="0" width="52.5" height="64" filterUnits="userSpaceOnUse" color-interpolation-filters="sRGB">
<feFlood flood-opacity="0" result="BackgroundImageFix"/>
<feBlend mode="normal" in="SourceGraphic" in2="BackgroundImageFix" result="shape"/>
<feColorMatrix in="SourceAlpha" type="matrix" values="0 0 0 0 0 0 0 0 0 0 0 0 0 0 0 0 0 0 127 0" result="hardAlpha"/>
<feOffset dy="4"/>
<feGaussianBlur stdDeviation="2"/>
<feComposite in2="hardAlpha" operator="arithmetic" k2="-1" k3="1"/>
<feColorMatrix type="matrix" values="0 0 0 0 0 0 0 0 0 0 0 0 0 0 0 0 0 0 0.4 0"/>
<feBlend mode="normal" in2="shape" result="effect1_innerShadow_4_29"/>
</filter>
<clipPath id="clip0_4_29">
<rect width="52.5" height="60" fill="white"/>
</clipPath>
</defs>
</svg>
