<svg width="512" height="512" viewBox="0 0 512 512" fill="none" xmlns="http://www.w3.org/2000/svg">
<path d="M160 416H96C78.33 416 64 401.67 64 384V128C64 110.33 78.33 96 96 96H160C177.67 96 192 81.67 192 64C192 46.33 177.7 32 160 32H96C42.98 32 0 74.98 0 128V384C0 437.02 42.98 480 96 480H160C177.67 480 192 465.67 192 448C192 430.33 177.7 416 160 416ZM502.6 233.4L374.6 105.4C362.09 92.89 341.84 92.91 329.35 105.4C316.85 117.9 316.85 138.15 329.35 150.65L402.8 224H192C174.3 224 160 238.3 160 256C160 273.7 174.31 288 192 288H402.8L329.42 361.38C316.92 373.88 316.92 394.13 329.42 406.63C341.92 419.13 362.17 419.13 374.67 406.63L502.67 278.63C515.1 266.1 515.1 245.9 502.6 233.4Z" fill="black"/>
<path d="M85.0231 479.065C73.866 477.593 65.1292 475.033 55.234 470.338C44.5632 465.274 37.5592 460.392 29.2655 452.238C14.579 437.798 5.68494 421.13 1.7113 400.601C0.393926 393.795 0.389228 393.381 0.156943 263.447C-0.08474 128.257 0.0554252 118.736 2.44652 107.93C10.484 71.6057 38.4754 43.2206 74.5728 34.7893C84.5504 32.4588 90.7144 32.189 129.396 32.3891L166.633 32.5818L170.828 34.2631C181.306 38.462 188.333 46.6136 190.909 57.5612C194.63 73.3665 184.025 90.4096 167.848 94.6231C164.781 95.4219 158.56 95.575 128.801 95.5841C100.813 95.5926 92.5408 95.7773 89.2916 96.466C77.8529 98.8906 68.1479 107.925 65.0739 119.011C63.9689 122.996 63.9225 128.52 63.9225 256C63.9225 383.48 63.9689 389.004 65.0739 392.989C68.2139 404.313 78.4684 413.581 90.257 415.749C92.6387 416.187 106.349 416.427 129.07 416.427C158.612 416.427 164.78 416.578 167.848 417.377C184.052 421.597 194.636 438.607 190.909 454.439C188.309 465.488 181.226 473.583 170.356 477.929L166.633 479.418L127.845 479.508C106.512 479.557 87.2417 479.358 85.0231 479.065V479.065Z" fill="#A4A4A4"/>
<path d="M345.312 414.926C333.358 412.197 323.655 402.372 321.125 390.437C320.646 388.177 320.249 385.185 320.244 383.789C320.227 379.869 322.521 371.827 324.739 368.031C326.15 365.614 337.962 353.333 364.875 326.299L403.012 287.992L294.752 287.821L186.492 287.651L182.458 286.223C171.316 282.277 163.436 273.431 161.056 262.195C159.911 256.789 159.91 255.221 161.052 249.794C163.445 238.417 171.716 229.294 183.079 225.497C186.332 224.41 191.589 224.348 294.752 224.182L403.012 224.009L364.491 185.391C327.159 147.965 325.9 146.627 323.708 142.023C320.703 135.716 319.693 129.131 320.79 122.995C323.911 105.529 340.842 93.541 357.543 96.9714C367.847 99.0879 362.567 94.32 437.667 169.326C492.256 223.847 506.124 238.019 507.585 240.773C510.679 246.606 511.569 250.751 511.252 257.862C510.992 263.716 510.787 264.545 508.319 269.698L505.666 275.239L439.17 341.735C398.494 382.411 371.349 409.092 369.261 410.449C362.326 414.956 353.043 416.691 345.312 414.926H345.312Z" fill="#A4A4A4"/>
</svg>
