<svg width="25" height="25" viewBox="0 0 25 25" fill="none" xmlns="http://www.w3.org/2000/svg">
<path d="M22.6562 0.78125C21.7935 0.78125 21.0938 1.47998 21.0938 2.34375V5.96143C19.1455 3.24805 15.9863 1.5625 12.5 1.5625C7.88574 1.5625 3.8374 4.50879 2.4209 8.89648C2.15537 9.71729 2.6063 10.5996 3.42725 10.8633C4.25195 11.1318 5.13037 10.6771 5.39502 9.85791C6.3916 6.7627 9.24805 4.6875 12.5 4.6875C14.9658 4.6875 17.2002 5.88623 18.5742 7.8125H16.4062C15.5435 7.8125 14.8438 8.51123 14.8438 9.375C14.8438 10.2388 15.5435 10.9375 16.4062 10.9375H22.6562C23.519 10.9375 24.2188 10.2388 24.2188 9.375V2.34375C24.2188 1.47998 23.5205 0.78125 22.6562 0.78125ZM21.5723 14.1406C20.7461 13.8751 19.8691 14.3268 19.6045 15.146C18.6084 18.2373 15.752 20.3125 12.5 20.3125C10.0342 20.3125 7.80029 19.1138 6.42578 17.1875H8.59375C9.45654 17.1875 10.1562 16.4888 10.1562 15.625C10.1562 14.7612 9.45654 14.0625 8.59375 14.0625H2.34375C1.48096 14.0625 0.78125 14.7612 0.78125 15.625V22.6562C0.78125 23.52 1.48096 24.2188 2.34375 24.2188C3.20654 24.2188 3.90625 23.52 3.90625 22.6562V19.0386C5.85449 21.7529 9.01367 23.4375 12.4561 23.4375C17.0679 23.4375 21.1182 20.4912 22.5342 16.1035C22.8467 15.2832 22.3926 14.3604 21.5723 14.1406Z" fill="#A4A4A4"/>
</svg>
