<svg width="32" height="32" viewBox="0 0 32 32" fill="none" xmlns="http://www.w3.org/2000/svg">
<circle cx="16" cy="16" r="15.5" fill="#D1BC4B" stroke="#FFDE5A"/>
<path d="M14.6465 19.6006V19.1436C14.6465 18.6748 14.6905 18.2734 14.7784 17.9395C14.8663 17.5996 15.0186 17.2832 15.2354 16.9902C15.4581 16.6973 15.7657 16.3867 16.1583 16.0586C16.6153 15.6777 16.9756 15.3555 17.2393 15.0918C17.5088 14.8223 17.7022 14.5527 17.8194 14.2832C17.9366 14.0137 17.9952 13.6885 17.9952 13.3076C17.9952 12.6982 17.7989 12.2324 17.4063 11.9102C17.0137 11.582 16.46 11.418 15.7452 11.418C15.1651 11.418 14.6495 11.4912 14.1983 11.6377C13.7471 11.7842 13.3135 11.96 12.8975 12.165L12.3877 10.9873C12.8682 10.7354 13.3897 10.5303 13.9522 10.3721C14.5147 10.2139 15.1416 10.1348 15.8331 10.1348C16.9639 10.1348 17.8399 10.416 18.461 10.9785C19.0821 11.5352 19.3926 12.3027 19.3926 13.2812C19.3926 13.8262 19.3047 14.292 19.129 14.6787C18.9532 15.0596 18.7041 15.4111 18.3819 15.7334C18.0596 16.0498 17.6788 16.3867 17.2393 16.7441C16.8526 17.0723 16.5567 17.3623 16.3516 17.6143C16.1465 17.8604 16.0059 18.1152 15.9297 18.3789C15.8536 18.6367 15.8155 18.9473 15.8155 19.3105V19.6006H14.6465ZM14.2598 22.2549C14.2598 21.8447 14.3565 21.5547 14.5499 21.3848C14.7432 21.209 14.9922 21.1211 15.2969 21.1211C15.584 21.1211 15.8272 21.209 16.0264 21.3848C16.2315 21.5547 16.334 21.8447 16.334 22.2549C16.334 22.6592 16.2315 22.9551 16.0264 23.1426C15.8272 23.3242 15.584 23.415 15.2969 23.415C14.9922 23.415 14.7432 23.3242 14.5499 23.1426C14.3565 22.9551 14.2598 22.6592 14.2598 22.2549Z" fill="#FFDE5A"/>
</svg>
