<svg width="53" height="60" viewBox="0 0 53 60" fill="none" xmlns="http://www.w3.org/2000/svg">
<g clip-path="url(#clip0_4_21)" filter="url(#filter0_i_4_21)">
<path d="M44.6367 11.3789C39.7266 6.45703 33.1875 3.75 26.2383 3.75C11.8945 3.75 0.222656 15.4219 0.222656 29.7656C0.222656 34.3477 1.41797 38.8242 3.69141 42.7734L0 56.25L13.793 52.6289C17.5898 54.7031 21.8672 55.793 26.2266 55.793H26.2383C40.5703 55.793 52.5 44.1211 52.5 29.7773C52.5 22.8281 49.5469 16.3008 44.6367 11.3789ZM26.2383 51.4102C22.3477 51.4102 18.5391 50.3672 15.2227 48.3984L14.4375 47.9297L6.25781 50.0742L8.4375 42.0938L7.92188 41.2734C5.75391 37.8281 4.61719 33.8555 4.61719 29.7656C4.61719 17.8477 14.3203 8.14453 26.25 8.14453C32.0273 8.14453 37.4531 10.3945 41.5312 14.4844C45.6094 18.5742 48.1172 24 48.1055 29.7773C48.1055 41.707 38.1562 51.4102 26.2383 51.4102ZM38.0977 35.2148C37.4531 34.8867 34.2539 33.3164 33.6562 33.1055C33.0586 32.8828 32.625 32.7773 32.1914 33.4336C31.7578 34.0898 30.5156 35.543 30.1289 35.9883C29.7539 36.4219 29.3672 36.4805 28.7227 36.1523C24.9023 34.2422 22.3945 32.7422 19.875 28.418C19.207 27.2695 20.543 27.3516 21.7852 24.8672C21.9961 24.4336 21.8906 24.0586 21.7266 23.7305C21.5625 23.4023 20.2617 20.2031 19.7227 18.9023C19.1953 17.6367 18.6562 17.8125 18.2578 17.7891C17.8828 17.7656 17.4492 17.7656 17.0156 17.7656C16.582 17.7656 15.8789 17.9297 15.2812 18.5742C14.6836 19.2305 13.0078 20.8008 13.0078 24C13.0078 27.1992 15.3398 30.293 15.6563 30.7266C15.9844 31.1602 20.2383 37.7227 26.7656 40.5469C30.8906 42.3281 32.5078 42.4805 34.5703 42.1758C35.8242 41.9883 38.4141 40.6055 38.9531 39.082C39.4922 37.5586 39.4922 36.2578 39.3281 35.9883C39.1758 35.6953 38.7422 35.5312 38.0977 35.2148Z" fill="#FFDE5A"/>
</g>
<defs>
<filter id="filter0_i_4_21" x="0" y="0" width="52.5" height="64" filterUnits="userSpaceOnUse" color-interpolation-filters="sRGB">
<feFlood flood-opacity="0" result="BackgroundImageFix"/>
<feBlend mode="normal" in="SourceGraphic" in2="BackgroundImageFix" result="shape"/>
<feColorMatrix in="SourceAlpha" type="matrix" values="0 0 0 0 0 0 0 0 0 0 0 0 0 0 0 0 0 0 127 0" result="hardAlpha"/>
<feOffset dy="4"/>
<feGaussianBlur stdDeviation="2"/>
<feComposite in2="hardAlpha" operator="arithmetic" k2="-1" k3="1"/>
<feColorMatrix type="matrix" values="0 0 0 0 0 0 0 0 0 0 0 0 0 0 0 0 0 0 0.4 0"/>
<feBlend mode="normal" in2="shape" result="effect1_innerShadow_4_21"/>
</filter>
<clipPath id="clip0_4_21">
<rect width="52.5" height="60" fill="white"/>
</clipPath>
</defs>
</svg>
